<svg height="140" viewBox="0 0 1024 1008" fill="none" xmlns="http://www.w3.org/2000/svg">
<path d="M104.199 973H96.2434V864.37H104.199V910.729C107.565 907.669 111.288 905.17 115.368 903.232C119.448 901.192 123.936 900.172 128.832 900.172C132.81 900.172 136.278 900.784 139.236 902.008C142.194 903.13 144.591 904.762 146.427 906.904C148.365 908.944 149.793 911.392 150.711 914.248C151.731 917.002 152.241 920.062 152.241 923.428V973H144.285V925.876C144.285 918.838 142.704 913.891 139.542 911.035C136.38 908.077 132.198 906.598 126.996 906.598C123.324 906.598 119.499 907.618 115.521 909.658C111.543 911.596 107.769 914.248 104.199 917.614V973ZM223.763 901.09H231.719V973H226.058L224.834 963.973H224.528C222.08 966.625 218.816 969.022 214.736 971.164C210.656 973.204 205.862 974.224 200.354 974.224C192.908 974.224 186.89 972.235 182.3 968.257C177.812 964.177 175.568 957.853 175.568 949.285V901.09H183.524V947.602C183.524 951.58 183.983 954.895 184.901 957.547C185.819 960.097 187.094 962.137 188.726 963.667C190.358 965.197 192.296 966.268 194.54 966.88C196.886 967.492 199.385 967.798 202.037 967.798C206.627 967.798 210.86 966.727 214.736 964.585C218.714 962.443 221.723 959.893 223.763 956.935V901.09ZM325.134 863.605C327.786 863.605 330.54 864.013 333.396 864.829C336.252 865.543 338.751 866.563 340.893 867.889L338.904 873.244C336.864 872.122 334.824 871.306 332.784 870.796C330.744 870.286 328.857 870.031 327.123 870.031C322.023 870.031 318.147 871.459 315.495 874.315C312.945 877.069 311.67 881.914 311.67 888.85V901.09H336.303V906.598H311.67V973H303.714V906.598H267.3V973H259.344V906.598H246.186V901.09H259.344V887.32C259.344 879.364 261.231 873.448 265.005 869.572C268.779 865.594 274.032 863.605 280.764 863.605C283.416 863.605 286.17 864.013 289.026 864.829C291.882 865.543 294.381 866.563 296.523 867.889L294.534 873.244C292.494 872.122 290.454 871.306 288.414 870.796C286.374 870.286 284.487 870.031 282.753 870.031C277.653 870.031 273.777 871.459 271.125 874.315C268.575 877.069 267.3 881.914 267.3 888.85V901.09H303.714V887.32C303.714 879.364 305.601 873.448 309.375 869.572C313.149 865.594 318.402 863.605 325.134 863.605ZM356.396 973H348.44V901.09H354.101L355.325 911.035C358.691 907.669 362.312 905.017 366.188 903.079C370.064 901.039 374.705 900.019 380.111 900.019C385.211 900.019 389.393 901.09 392.657 903.232C395.921 905.272 398.369 908.128 400.001 911.8C403.571 908.026 407.498 905.119 411.782 903.079C416.066 901.039 420.809 900.019 426.011 900.019C433.355 900.019 438.863 902.11 442.535 906.292C446.309 910.372 448.196 916.084 448.196 923.428V973H440.24V925.876C440.24 919.756 438.914 915.013 436.262 911.647C433.712 908.281 429.071 906.598 422.339 906.598C418.871 906.598 415.25 907.567 411.476 909.505C407.804 911.443 404.693 914.044 402.143 917.308C402.245 918.226 402.296 919.246 402.296 920.368C402.296 921.49 402.296 922.51 402.296 923.428V973H394.34V925.876C394.34 919.756 393.116 915.013 390.668 911.647C388.22 908.281 383.681 906.598 377.051 906.598C373.277 906.598 369.554 907.618 365.882 909.658C362.312 911.596 359.15 914.299 356.396 917.767V973ZM469.725 907.363C474.519 904.813 478.905 902.977 482.883 901.855C486.963 900.733 491.298 900.172 495.888 900.172C499.152 900.172 502.212 900.631 505.068 901.549C508.026 902.467 510.576 903.946 512.718 905.986C514.962 908.026 516.696 910.729 517.92 914.095C519.246 917.359 519.909 921.388 519.909 926.182V973H514.401L512.718 963.514H512.412C509.454 967.084 505.986 969.787 502.008 971.623C498.03 973.357 493.593 974.224 488.697 974.224C485.331 974.224 482.22 973.765 479.364 972.847C476.508 971.827 474.009 970.399 471.867 968.563C469.827 966.727 468.195 964.534 466.971 961.984C465.849 959.332 465.288 956.425 465.288 953.263C465.288 949.489 466.053 946.174 467.583 943.318C469.113 940.462 471.255 938.116 474.009 936.28C476.763 934.342 480.027 932.914 483.801 931.996C487.677 931.078 491.961 930.619 496.653 930.619H511.953V925.876C511.953 918.94 510.423 913.993 507.363 911.035C504.303 908.077 500.325 906.598 495.429 906.598C492.471 906.598 489.054 907.057 485.178 907.975C481.302 908.893 477.171 910.576 472.785 913.024L469.725 907.363ZM511.953 936.892L499.254 937.045C494.664 937.147 490.737 937.657 487.473 938.575C484.209 939.391 481.506 940.513 479.364 941.941C477.324 943.267 475.845 944.899 474.927 946.837C474.009 948.673 473.55 950.662 473.55 952.804C473.55 955.456 474.009 957.751 474.927 959.689C475.845 961.525 477.069 963.055 478.599 964.279C480.129 965.503 481.914 966.421 483.954 967.033C486.096 967.543 488.34 967.798 490.686 967.798C492.522 967.798 494.409 967.594 496.347 967.186C498.285 966.676 500.172 965.962 502.008 965.044C503.946 964.024 505.782 962.8 507.516 961.372C509.25 959.842 510.729 958.006 511.953 955.864V936.892ZM549.588 973H541.632V901.09H547.446L548.67 911.035C552.138 907.771 555.861 905.17 559.839 903.232C563.919 901.192 568.509 900.172 573.609 900.172C580.953 900.172 586.665 902.212 590.745 906.292C594.927 910.372 597.018 916.084 597.018 923.428V973H589.062V925.417C589.062 922.765 588.756 920.317 588.144 918.073C587.634 915.727 586.665 913.738 585.237 912.106C583.911 910.372 582.075 909.046 579.729 908.128C577.485 907.108 574.68 906.598 571.314 906.598C567.438 906.598 563.562 907.618 559.686 909.658C555.912 911.596 552.546 914.248 549.588 917.614V973ZM646.846 925.111V931.843H613.186V925.111H646.846ZM693.859 968.41C697.123 968.41 700.081 968.053 702.733 967.339C705.385 966.625 707.884 965.707 710.23 964.585L711.913 970.093C709.159 971.521 706.252 972.541 703.192 973.153C700.234 973.867 696.817 974.224 692.941 974.224C688.147 974.224 683.608 973.459 679.324 971.929C675.142 970.399 671.419 968.104 668.155 965.044C664.993 961.984 662.443 958.159 660.505 953.569C658.669 948.877 657.751 943.42 657.751 937.198C657.751 931.486 658.618 926.335 660.352 921.745C662.086 917.155 664.534 913.279 667.696 910.117C670.858 906.853 674.53 904.405 678.712 902.773C682.996 901.039 687.688 900.172 692.788 900.172C695.95 900.172 699.01 900.427 701.968 900.937C704.926 901.345 708.139 902.365 711.607 903.997L709.771 910.27C707.017 908.842 704.365 907.873 701.815 907.363C699.367 906.853 696.817 906.598 694.165 906.598C689.983 906.598 686.158 907.312 682.69 908.74C679.222 910.168 676.264 912.208 673.816 914.86C671.368 917.41 669.43 920.572 668.002 924.346C666.676 928.018 666.013 932.149 666.013 936.739C666.013 942.859 666.829 947.959 668.461 952.039C670.093 956.017 672.184 959.23 674.734 961.678C677.386 964.126 680.344 965.86 683.608 966.88C686.974 967.9 690.391 968.41 693.859 968.41ZM784.317 936.28C784.317 942.298 783.501 947.704 781.869 952.498C780.237 957.19 777.942 961.168 774.984 964.432C772.128 967.594 768.762 970.042 764.886 971.776C761.01 973.408 756.777 974.224 752.187 974.224C747.699 974.224 743.466 973.459 739.488 971.929C735.612 970.297 732.246 967.951 729.39 964.891C726.534 961.831 724.29 958.057 722.658 953.569C721.026 948.979 720.21 943.726 720.21 937.81C720.21 931.792 721.026 926.437 722.658 921.745C724.392 917.053 726.738 913.126 729.696 909.964C732.654 906.7 736.122 904.252 740.1 902.62C744.078 900.988 748.311 900.172 752.799 900.172C757.287 900.172 761.469 900.937 765.345 902.467C769.221 903.997 772.536 906.292 775.29 909.352C778.146 912.412 780.339 916.186 781.869 920.674C783.501 925.162 784.317 930.364 784.317 936.28ZM776.055 937.045C776.055 931.741 775.392 927.202 774.066 923.428C772.74 919.552 770.955 916.39 768.711 913.942C766.569 911.392 764.07 909.556 761.214 908.434C758.358 907.21 755.4 906.598 752.34 906.598C749.28 906.598 746.322 907.21 743.466 908.434C740.61 909.556 738.06 911.392 735.816 913.942C733.572 916.39 731.787 919.552 730.461 923.428C729.135 927.202 728.472 931.741 728.472 937.045C728.472 942.655 729.135 947.398 730.461 951.274C731.889 955.15 733.725 958.312 735.969 960.76C738.213 963.208 740.763 964.993 743.619 966.115C746.577 967.237 749.586 967.798 752.646 967.798C755.706 967.798 758.613 967.288 761.367 966.268C764.223 965.146 766.722 963.361 768.864 960.913C771.108 958.465 772.842 955.303 774.066 951.427C775.392 947.449 776.055 942.655 776.055 937.045ZM849.331 864.37H857.287V973H850.861L849.79 966.268H849.484C847.342 968.614 844.639 970.552 841.375 972.082C838.111 973.51 833.878 974.224 828.676 974.224C824.8 974.224 820.975 973.51 817.201 972.082C813.529 970.552 810.163 968.257 807.103 965.197C804.145 962.137 801.748 958.312 799.912 953.722C798.076 949.03 797.158 943.522 797.158 937.198C797.158 931.588 797.872 926.488 799.3 921.898C800.83 917.308 803.023 913.432 805.879 910.27C808.735 907.006 812.152 904.507 816.13 902.773C820.21 901.039 824.8 900.172 829.9 900.172C837.652 900.172 844.129 902.467 849.331 907.057V864.37ZM849.331 915.166C847.291 912.514 844.588 910.423 841.222 908.893C837.856 907.363 834.541 906.598 831.277 906.598C827.911 906.598 824.647 907.159 821.485 908.281C818.425 909.301 815.671 910.984 813.223 913.33C810.877 915.676 808.99 918.787 807.562 922.663C806.134 926.539 805.42 931.231 805.42 936.739C805.42 942.451 806.134 947.296 807.562 951.274C808.99 955.15 810.877 958.312 813.223 960.76C815.671 963.208 818.425 964.993 821.485 966.115C824.545 967.237 827.707 967.798 830.971 967.798C835.357 967.798 839.08 966.982 842.14 965.35C845.302 963.718 847.699 961.678 849.331 959.23V915.166ZM933.623 937.045H882.368V939.187C882.368 948.163 884.765 955.201 889.559 960.301C894.455 965.299 901.085 967.798 909.449 967.798C916.079 967.798 922.301 966.676 928.115 964.432L929.951 970.552C927.299 971.674 924.086 972.541 920.312 973.153C916.64 973.867 912.866 974.224 908.99 974.224C904.196 974.224 899.657 973.51 895.373 972.082C891.191 970.654 887.519 968.461 884.357 965.503C881.195 962.443 878.696 958.618 876.86 954.028C875.024 949.336 874.106 943.726 874.106 937.198C874.106 931.588 874.871 926.488 876.401 921.898C877.931 917.308 880.124 913.432 882.98 910.27C885.836 907.006 889.202 904.507 893.078 902.773C896.954 901.039 901.289 900.172 906.083 900.172C910.163 900.172 913.886 900.937 917.252 902.467C920.72 903.895 923.627 905.986 925.973 908.74C928.421 911.494 930.308 914.809 931.634 918.685C932.96 922.561 933.623 926.845 933.623 931.537V937.045ZM925.361 930.619C925.361 927.661 925.004 924.754 924.29 921.898C923.576 918.94 922.403 916.339 920.771 914.095C919.241 911.851 917.201 910.066 914.651 908.74C912.203 907.312 909.194 906.598 905.624 906.598C899.402 906.598 894.2 908.689 890.018 912.871C885.938 917.053 883.49 922.969 882.674 930.619H925.361Z" fill="#777"/>
<rect x="142" width="740" height="740" rx="311" fill="#fafa00"/>
<path d="M446.379 493.768V303.387C446.379 288.803 443.417 276.157 437.492 265.447C431.796 254.51 423.137 246.079 411.516 240.154C399.895 234.23 385.539 231.268 368.449 231.268C352.499 231.268 338.485 234.002 326.408 239.471C314.559 244.939 305.217 252.117 298.381 261.004C291.773 269.891 288.469 279.461 288.469 289.715H225.236C225.236 276.499 228.654 263.396 235.49 250.408C242.326 237.42 252.124 225.685 264.885 215.203C277.873 204.493 293.368 196.062 311.369 189.91C329.598 183.53 349.878 180.34 372.209 180.34C399.097 180.34 422.795 184.897 443.303 194.012C464.038 203.126 480.217 216.912 491.838 235.369C503.687 253.598 509.611 276.499 509.611 304.07V476.336C509.611 488.641 510.637 501.743 512.688 515.643C514.966 529.542 518.27 541.505 522.6 551.531L525 557H456.633C453.443 549.708 450.936 540.024 449.113 527.947C447.29 515.643 446.379 504.249 446.379 493.768ZM457.316 332.781L458 377.215H394.084C376.083 377.215 360.018 378.696 345.891 381.658C331.763 384.393 319.914 388.608 310.344 394.305C300.773 400.001 293.482 407.179 288.469 415.838C283.456 424.269 280.949 434.181 280.949 445.574C280.949 457.195 283.57 467.791 288.811 477.361C294.051 486.932 301.913 494.565 312.395 500.262C323.104 505.73 336.206 508.465 351.701 508.465C371.07 508.465 388.16 504.363 402.971 496.16C417.782 487.957 429.517 477.931 438.176 466.082C447.062 454.233 451.848 442.726 452.531 431.561L479.533 461.98C477.938 471.551 473.609 482.146 466.545 493.768C459.481 505.389 450.025 516.554 438.176 527.264C426.555 537.745 412.655 546.518 396.477 553.582C380.526 560.418 362.525 563.836 342.473 563.836C317.408 563.836 295.419 558.937 276.506 549.139C257.821 539.34 243.238 526.238 232.756 509.832C222.502 493.198 217.375 474.627 217.375 454.119C217.375 434.295 221.249 416.863 228.996 401.824C236.743 386.557 247.909 373.911 262.492 363.885C277.076 353.631 294.621 345.883 315.129 340.643C335.637 335.402 358.537 332.781 383.83 332.781H457.316Z" fill="white"/>
</svg>
