<svg height="140" viewBox="0 0 858 1008" fill="none" xmlns="http://www.w3.org/2000/svg">
<path d="M26.5783 973H18.6223V864.37H26.5783V910.729C29.9443 907.669 33.6673 905.17 37.7473 903.232C41.8273 901.192 46.3153 900.172 51.2113 900.172C55.1893 900.172 58.6573 900.784 61.6153 902.008C64.5733 903.13 66.9703 904.762 68.8063 906.904C70.7443 908.944 72.1723 911.392 73.0903 914.248C74.1103 917.002 74.6203 920.062 74.6203 923.428V973H66.6643V925.876C66.6643 918.838 65.0833 913.891 61.9213 911.035C58.7593 908.077 54.5773 906.598 49.3753 906.598C45.7033 906.598 41.8783 907.618 37.9003 909.658C33.9223 911.596 30.1483 914.248 26.5783 917.614V973ZM146.142 901.09H154.098V973H148.437L147.213 963.973H146.907C144.459 966.625 141.195 969.022 137.115 971.164C133.035 973.204 128.241 974.224 122.733 974.224C115.287 974.224 109.269 972.235 104.679 968.257C100.191 964.177 97.9468 957.853 97.9468 949.285V901.09H105.903V947.602C105.903 951.58 106.362 954.895 107.28 957.547C108.198 960.097 109.473 962.137 111.105 963.667C112.737 965.197 114.675 966.268 116.919 966.88C119.265 967.492 121.764 967.798 124.416 967.798C129.006 967.798 133.239 966.727 137.115 964.585C141.093 962.443 144.102 959.893 146.142 956.935V901.09ZM247.513 863.605C250.165 863.605 252.919 864.013 255.775 864.829C258.631 865.543 261.13 866.563 263.272 867.889L261.283 873.244C259.243 872.122 257.203 871.306 255.163 870.796C253.123 870.286 251.236 870.031 249.502 870.031C244.402 870.031 240.526 871.459 237.874 874.315C235.324 877.069 234.049 881.914 234.049 888.85V901.09H258.682V906.598H234.049V973H226.093V906.598H189.679V973H181.723V906.598H168.565V901.09H181.723V887.32C181.723 879.364 183.61 873.448 187.384 869.572C191.158 865.594 196.411 863.605 203.143 863.605C205.795 863.605 208.549 864.013 211.405 864.829C214.261 865.543 216.76 866.563 218.902 867.889L216.913 873.244C214.873 872.122 212.833 871.306 210.793 870.796C208.753 870.286 206.866 870.031 205.132 870.031C200.032 870.031 196.156 871.459 193.504 874.315C190.954 877.069 189.679 881.914 189.679 888.85V901.09H226.093V887.32C226.093 879.364 227.98 873.448 231.754 869.572C235.528 865.594 240.781 863.605 247.513 863.605ZM278.775 973H270.819V901.09H276.48L277.704 911.035C281.07 907.669 284.691 905.017 288.567 903.079C292.443 901.039 297.084 900.019 302.49 900.019C307.59 900.019 311.772 901.09 315.036 903.232C318.3 905.272 320.748 908.128 322.38 911.8C325.95 908.026 329.877 905.119 334.161 903.079C338.445 901.039 343.188 900.019 348.39 900.019C355.734 900.019 361.242 902.11 364.914 906.292C368.688 910.372 370.575 916.084 370.575 923.428V973H362.619V925.876C362.619 919.756 361.293 915.013 358.641 911.647C356.091 908.281 351.45 906.598 344.718 906.598C341.25 906.598 337.629 907.567 333.855 909.505C330.183 911.443 327.072 914.044 324.522 917.308C324.624 918.226 324.675 919.246 324.675 920.368C324.675 921.49 324.675 922.51 324.675 923.428V973H316.719V925.876C316.719 919.756 315.495 915.013 313.047 911.647C310.599 908.281 306.06 906.598 299.43 906.598C295.656 906.598 291.933 907.618 288.261 909.658C284.691 911.596 281.529 914.299 278.775 917.767V973ZM392.104 907.363C396.898 904.813 401.284 902.977 405.262 901.855C409.342 900.733 413.677 900.172 418.267 900.172C421.531 900.172 424.591 900.631 427.447 901.549C430.405 902.467 432.955 903.946 435.097 905.986C437.341 908.026 439.075 910.729 440.299 914.095C441.625 917.359 442.288 921.388 442.288 926.182V973H436.78L435.097 963.514H434.791C431.833 967.084 428.365 969.787 424.387 971.623C420.409 973.357 415.972 974.224 411.076 974.224C407.71 974.224 404.599 973.765 401.743 972.847C398.887 971.827 396.388 970.399 394.246 968.563C392.206 966.727 390.574 964.534 389.35 961.984C388.228 959.332 387.667 956.425 387.667 953.263C387.667 949.489 388.432 946.174 389.962 943.318C391.492 940.462 393.634 938.116 396.388 936.28C399.142 934.342 402.406 932.914 406.18 931.996C410.056 931.078 414.34 930.619 419.032 930.619H434.332V925.876C434.332 918.94 432.802 913.993 429.742 911.035C426.682 908.077 422.704 906.598 417.808 906.598C414.85 906.598 411.433 907.057 407.557 907.975C403.681 908.893 399.55 910.576 395.164 913.024L392.104 907.363ZM434.332 936.892L421.633 937.045C417.043 937.147 413.116 937.657 409.852 938.575C406.588 939.391 403.885 940.513 401.743 941.941C399.703 943.267 398.224 944.899 397.306 946.837C396.388 948.673 395.929 950.662 395.929 952.804C395.929 955.456 396.388 957.751 397.306 959.689C398.224 961.525 399.448 963.055 400.978 964.279C402.508 965.503 404.293 966.421 406.333 967.033C408.475 967.543 410.719 967.798 413.065 967.798C414.901 967.798 416.788 967.594 418.726 967.186C420.664 966.676 422.551 965.962 424.387 965.044C426.325 964.024 428.161 962.8 429.895 961.372C431.629 959.842 433.108 958.006 434.332 955.864V936.892ZM471.967 973H464.011V901.09H469.825L471.049 911.035C474.517 907.771 478.24 905.17 482.218 903.232C486.298 901.192 490.888 900.172 495.988 900.172C503.332 900.172 509.044 902.212 513.124 906.292C517.306 910.372 519.397 916.084 519.397 923.428V973H511.441V925.417C511.441 922.765 511.135 920.317 510.523 918.073C510.013 915.727 509.044 913.738 507.616 912.106C506.29 910.372 504.454 909.046 502.108 908.128C499.864 907.108 497.059 906.598 493.693 906.598C489.817 906.598 485.941 907.618 482.065 909.658C478.291 911.596 474.925 914.248 471.967 917.614V973ZM605.48 968.41C608.744 968.41 611.702 968.053 614.354 967.339C617.006 966.625 619.505 965.707 621.851 964.585L623.534 970.093C620.78 971.521 617.873 972.541 614.813 973.153C611.855 973.867 608.438 974.224 604.562 974.224C599.768 974.224 595.229 973.459 590.945 971.929C586.763 970.399 583.04 968.104 579.776 965.044C576.614 961.984 574.064 958.159 572.126 953.569C570.29 948.877 569.372 943.42 569.372 937.198C569.372 931.486 570.239 926.335 571.973 921.745C573.707 917.155 576.155 913.279 579.317 910.117C582.479 906.853 586.151 904.405 590.333 902.773C594.617 901.039 599.309 900.172 604.409 900.172C607.571 900.172 610.631 900.427 613.589 900.937C616.547 901.345 619.76 902.365 623.228 903.997L621.392 910.27C618.638 908.842 615.986 907.873 613.436 907.363C610.988 906.853 608.438 906.598 605.786 906.598C601.604 906.598 597.779 907.312 594.311 908.74C590.843 910.168 587.885 912.208 585.437 914.86C582.989 917.41 581.051 920.572 579.623 924.346C578.297 928.018 577.634 932.149 577.634 936.739C577.634 942.859 578.45 947.959 580.082 952.039C581.714 956.017 583.805 959.23 586.355 961.678C589.007 964.126 591.965 965.86 595.229 966.88C598.595 967.9 602.012 968.41 605.48 968.41ZM695.938 936.28C695.938 942.298 695.122 947.704 693.49 952.498C691.858 957.19 689.563 961.168 686.605 964.432C683.749 967.594 680.383 970.042 676.507 971.776C672.631 973.408 668.398 974.224 663.808 974.224C659.32 974.224 655.087 973.459 651.109 971.929C647.233 970.297 643.867 967.951 641.011 964.891C638.155 961.831 635.911 958.057 634.279 953.569C632.647 948.979 631.831 943.726 631.831 937.81C631.831 931.792 632.647 926.437 634.279 921.745C636.013 917.053 638.359 913.126 641.317 909.964C644.275 906.7 647.743 904.252 651.721 902.62C655.699 900.988 659.932 900.172 664.42 900.172C668.908 900.172 673.09 900.937 676.966 902.467C680.842 903.997 684.157 906.292 686.911 909.352C689.767 912.412 691.96 916.186 693.49 920.674C695.122 925.162 695.938 930.364 695.938 936.28ZM687.676 937.045C687.676 931.741 687.013 927.202 685.687 923.428C684.361 919.552 682.576 916.39 680.332 913.942C678.19 911.392 675.691 909.556 672.835 908.434C669.979 907.21 667.021 906.598 663.961 906.598C660.901 906.598 657.943 907.21 655.087 908.434C652.231 909.556 649.681 911.392 647.437 913.942C645.193 916.39 643.408 919.552 642.082 923.428C640.756 927.202 640.093 931.741 640.093 937.045C640.093 942.655 640.756 947.398 642.082 951.274C643.51 955.15 645.346 958.312 647.59 960.76C649.834 963.208 652.384 964.993 655.24 966.115C658.198 967.237 661.207 967.798 664.267 967.798C667.327 967.798 670.234 967.288 672.988 966.268C675.844 965.146 678.343 963.361 680.485 960.913C682.729 958.465 684.463 955.303 685.687 951.427C687.013 947.449 687.676 942.655 687.676 937.045ZM760.952 864.37H768.908V973H762.482L761.411 966.268H761.105C758.963 968.614 756.26 970.552 752.996 972.082C749.732 973.51 745.499 974.224 740.297 974.224C736.421 974.224 732.596 973.51 728.822 972.082C725.15 970.552 721.784 968.257 718.724 965.197C715.766 962.137 713.369 958.312 711.533 953.722C709.697 949.03 708.779 943.522 708.779 937.198C708.779 931.588 709.493 926.488 710.921 921.898C712.451 917.308 714.644 913.432 717.5 910.27C720.356 907.006 723.773 904.507 727.751 902.773C731.831 901.039 736.421 900.172 741.521 900.172C749.273 900.172 755.75 902.467 760.952 907.057V864.37ZM760.952 915.166C758.912 912.514 756.209 910.423 752.843 908.893C749.477 907.363 746.162 906.598 742.898 906.598C739.532 906.598 736.268 907.159 733.106 908.281C730.046 909.301 727.292 910.984 724.844 913.33C722.498 915.676 720.611 918.787 719.183 922.663C717.755 926.539 717.041 931.231 717.041 936.739C717.041 942.451 717.755 947.296 719.183 951.274C720.611 955.15 722.498 958.312 724.844 960.76C727.292 963.208 730.046 964.993 733.106 966.115C736.166 967.237 739.328 967.798 742.592 967.798C746.978 967.798 750.701 966.982 753.761 965.35C756.923 963.718 759.32 961.678 760.952 959.23V915.166ZM845.244 937.045H793.989V939.187C793.989 948.163 796.386 955.201 801.18 960.301C806.076 965.299 812.706 967.798 821.07 967.798C827.7 967.798 833.922 966.676 839.736 964.432L841.572 970.552C838.92 971.674 835.707 972.541 831.933 973.153C828.261 973.867 824.487 974.224 820.611 974.224C815.817 974.224 811.278 973.51 806.994 972.082C802.812 970.654 799.14 968.461 795.978 965.503C792.816 962.443 790.317 958.618 788.481 954.028C786.645 949.336 785.727 943.726 785.727 937.198C785.727 931.588 786.492 926.488 788.022 921.898C789.552 917.308 791.745 913.432 794.601 910.27C797.457 907.006 800.823 904.507 804.699 902.773C808.575 901.039 812.91 900.172 817.704 900.172C821.784 900.172 825.507 900.937 828.873 902.467C832.341 903.895 835.248 905.986 837.594 908.74C840.042 911.494 841.929 914.809 843.255 918.685C844.581 922.561 845.244 926.845 845.244 931.537V937.045ZM836.982 930.619C836.982 927.661 836.625 924.754 835.911 921.898C835.197 918.94 834.024 916.339 832.392 914.095C830.862 911.851 828.822 910.066 826.272 908.74C823.824 907.312 820.815 906.598 817.245 906.598C811.023 906.598 805.821 908.689 801.639 912.871C797.559 917.053 795.111 922.969 794.295 930.619H836.982Z" fill="#777777"/>
<path d="M59 370C59 70 232 0 429 0C626 0 799 70 799 370C799 670 626 740 429 740C232 740 59 670 59 370Z" fill="#FAFA00"/>
<path d="M413.6 545.2C412.2 538.2 411.267 532.367 410.8 527.7C410.8 522.567 410.567 516.733 410.1 510.2C394.233 526.067 377.2 537.733 359 545.2C341.267 552.667 322.833 556.4 303.7 556.4C271.967 556.4 247.467 547.767 230.2 530.5C213.4 513.233 205 492 205 466.8C205 444.4 211.067 425.5 223.2 410.1C235.333 394.233 251.2 381.4 270.8 371.6C290.4 361.333 312.1 353.633 335.9 348.5C359.7 342.9 383.267 339.867 406.6 339.4V300.9C406.6 287.367 404.967 275 401.7 263.8C398.9 252.133 393.533 243.033 385.6 236.5C377.667 229.5 366 226 350.6 226C340.333 226.467 329.833 228.8 319.1 233C308.833 236.733 300.667 242.8 294.6 251.2C298.333 255.4 300.667 260.067 301.6 265.2C302.533 269.867 303 274.067 303 277.8C303 286.2 299.733 295.067 293.2 304.4C286.667 313.267 276.167 317.467 261.7 317C249.1 316.533 239.3 312.1 232.3 303.7C225.767 295.3 222.5 285.267 222.5 273.6C222.5 255.867 228.8 240.467 241.4 227.4C254.467 213.867 271.967 203.367 293.9 195.9C315.833 187.967 340.333 184 367.4 184C407.533 184 438.333 194.5 459.8 215.5C481.267 236.5 491.767 270.1 491.3 316.3C491.3 332.633 491.3 347.567 491.3 361.1C491.3 374.167 491.067 387.467 490.6 401C490.6 414.067 490.6 428.767 490.6 445.1C490.6 452.1 490.367 460.967 489.9 471.7C489.433 481.967 488.733 492.233 487.8 502.5C496.2 501.567 504.6 501.1 513 501.1C521.867 500.633 529.1 500.167 534.7 499.7V545.2H413.6ZM405.9 380.7C391.9 381.633 378.133 383.967 364.6 387.7C351.067 390.967 338.933 395.633 328.2 401.7C317.467 407.767 308.833 415.467 302.3 424.8C296.233 433.667 293.433 443.933 293.9 455.6C294.367 470.067 299.033 480.8 307.9 487.8C316.767 494.333 327.033 497.6 338.7 497.6C352.233 497.6 364.367 494.8 375.1 489.2C386.3 483.6 396.567 476.133 405.9 466.8C405.9 462.133 405.9 457.233 405.9 452.1C405.9 446.967 405.9 441.833 405.9 436.7C405.9 430.167 405.9 422 405.9 412.2C405.9 402.4 405.9 391.9 405.9 380.7Z" fill="white"/>
</svg>
